<?xml version="1.0" encoding="utf-8"?>
<!-- Generator: Adobe Illustrator 24.2.3, SVG Export Plug-In . SVG Version: 6.00 Build 0)  -->
<svg version="1.1" id="Layer_1" xmlns="http://www.w3.org/2000/svg" xmlns:xlink="http://www.w3.org/1999/xlink" x="0px" y="0px"
	 viewBox="0 0 267.99 273.29" style="enable-background:new 0 0 267.99 273.29;" xml:space="preserve">
<g>
	<path d="M131.89,273.29c-33.82-0.58-64.86-13.16-90.68-38.22c-17.8-17.28-29.84-38.08-36.38-61.98
		c-4.31-15.74-5.72-31.8-4.29-48.12c2.68-30.53,14.11-57.31,34.43-80.2c17.2-19.37,38.36-32.65,63.27-39.77
		c16.8-4.8,33.96-6.18,51.3-4.01c29.35,3.67,54.75,15.82,76.13,36.25c17.01,16.25,29,35.71,35.96,58.15
		c7.12,22.97,8.38,46.33,3.22,69.87c-8.55,38.98-29.9,68.97-64.04,89.62C180.34,267.27,157.9,273.02,131.89,273.29z M133.93,257.13
		c8.43,0,16.71-0.94,24.86-2.75c16.62-3.69,31.84-10.59,45.35-20.98c24.07-18.52,39.23-42.7,45.4-72.47
		c3.72-17.94,3.31-35.83-1.07-53.56c-5.6-22.65-16.81-42.19-33.68-58.37c-16.57-15.88-36.13-26.18-58.67-30.58
		c-17.61-3.44-35.14-2.8-52.5,1.92c-21.63,5.88-40.06,17.1-55.27,33.48C29.52,74.11,18.83,98.2,16.4,125.75
		c-2.47,27.98,3.66,54.09,19.3,77.47C59.04,238.09,92.06,255.84,133.93,257.13z"/>
	<path d="M67.22,159.72c-1.34,23.35-2.67,46.7-4.03,70.42c-0.8-0.56-1.33-0.93-1.84-1.31c-6.04-4.47-10.58-9.2-16.08-15.43
		c-0.75-0.75-1.12-2.32-1.12-3.4c-0.07-21.64-0.09-43.28-0.03-64.92c0.03-10.4,5.84-17.6,16.59-20.14c4.67-1.1,9.54-1.78,14.33-1.86
		c14.31-0.24,28.63-0.13,42.95-0.07c6.42,0.03,12.7,0.9,18.71,3.39c5.28,2.19,8.96,5.85,10.86,11.21c1.05,2.74,0.24,1.86,2.46,1.28
		c2.71-0.65,5.5-1.32,8.27-1.34c14.11-0.13,28.23,0.05,42.34-0.1c8.88-0.1,14.94,3.75,18.56,11.82c3.06,6.81,4.64,13.99,5.85,21.29
		c1.42,8.61,2.91,17.21,4.38,25.82c0.27,1.59,0.61,3.17,0.77,4.77c0.07,0.67-0.14,1.5-0.45,2.05c-3.5,6.29-8.59,11.62-14.39,17.09
		c-0.12,0.14-0.34,0.18-0.88,0.44c-3.21-13.51-6.39-26.91-9.58-40.31c-0.13-0.01-0.25-0.01-0.38-0.02c0,0.66-0.08,1.33,0.01,1.98
		c1.38,9.78,2.77,19.55,4.18,29.32c0.55,3.79,1.11,7.57,1.71,11.35c0.21,1.32-0.12,2.27-1.16,3.18
		c-8.56,7.58-17.99,13.83-28.36,18.63c-2.4,1.11-2.24,1.01-3.48-1.27c-3.21-5.9-6.57-11.71-9.9-17.54
		c-3.27-5.71-6.53-11.43-9.9-17.08c-0.92-1.54-2.1-2.95-3.34-4.26c-1.68-1.77-3.77-2.61-6.31-2.59c-8.53,0.08-17.07,0.13-25.61-0.02
		c-3.18-0.05-5.69,1.04-7.58,3.4c-1.63,2.03-3.05,4.26-4.36,6.51c-5.61,9.64-11.15,19.31-16.68,28.99c-0.79,1.39-1.41,2.89-2,4.38
		c-0.41,1.05-0.89,1.29-1.98,0.84c-7.27-3.07-14.13-6.88-20.54-11.46c-0.69-0.49-1.11-1.81-1.11-2.74
		c-0.07-13.11-0.05-26.21-0.05-39.32c0-10.08-0.02-20.16-0.03-30.24c0-0.91,0-1.82,0-2.72C67.75,159.73,67.48,159.73,67.22,159.72z
		 M153.36,180.78c-0.02-10.47-8.36-18.98-18.51-18.92c-10.16,0.06-18.46,8.63-18.45,19.04c0.02,10.27,8.35,18.74,18.47,18.78
		C145.1,199.7,153.38,191.24,153.36,180.78z"/>
	<path d="M179.49,80.99c13.64-0.01,24.65,11.18,24.66,25.07c0.01,13.8-11.14,25.12-24.7,25.09c-13.6-0.03-24.51-11.27-24.47-25.23
		C155.01,92.06,165.89,80.99,179.49,80.99z"/>
	<path d="M120.97,91.48c0.5,13.43-10.8,25.15-24.25,25.12c-13.81-0.03-24.76-10.98-24.78-24.87C71.92,77.68,82.7,66.56,96.37,66.55
		C110.22,66.53,120.95,77.41,120.97,91.48z"/>
	<path d="M118.58,224.6c0.06,0.97,0.12,1.48,0.12,2c0.01,8.38-0.03,16.77,0.03,25.15c0.01,1.75-0.43,2.53-2.3,2.12
		c-3.99-0.89-7.99-1.73-11.98-2.58c-1.06-0.22-1.37-0.75-0.81-1.71c4.63-8.01,9.26-16.02,13.9-24.02
		C117.71,225.3,118.02,225.12,118.58,224.6z"/>
	<path d="M151.69,224.55c5,8.67,9.85,17.08,14.97,25.96c-5.06,1.11-9.68,2.15-14.32,3.08c-0.33,0.07-1.2-0.72-1.2-1.11
		c-0.05-8.99-0.02-17.99,0.01-26.98C151.15,225.33,151.32,225.17,151.69,224.55z"/>
</g>
</svg>
