<?xml version="1.0" encoding="utf-8"?>
<!-- Generator: Adobe Illustrator 24.2.3, SVG Export Plug-In . SVG Version: 6.00 Build 0)  -->
<svg version="1.1" id="Layer_1" xmlns="http://www.w3.org/2000/svg" xmlns:xlink="http://www.w3.org/1999/xlink" x="0px" y="0px"
	 viewBox="0 0 17.91 17.91" style="enable-background:new 0 0 17.91 17.91;" xml:space="preserve">
<g>
	<g>
		<path d="M8.96,6.08c-0.34,0-0.63-0.11-0.87-0.34c-0.24-0.22-0.36-0.5-0.36-0.84c0-0.33,0.12-0.61,0.36-0.84
			c0.24-0.23,0.53-0.34,0.87-0.34s0.63,0.11,0.87,0.34c0.24,0.23,0.36,0.51,0.36,0.84c0,0.34-0.12,0.62-0.36,0.84
			C9.6,5.97,9.31,6.08,8.96,6.08z M7.77,14.18V7.7h2.39v6.48H7.77z"/>
	</g>
	<path d="M8.96,17.91C4.02,17.91,0,13.9,0,8.96S4.02,0,8.96,0s8.96,4.02,8.96,8.96S13.9,17.91,8.96,17.91z M8.96,2
		C5.12,2,2,5.12,2,8.96s3.12,6.96,6.96,6.96s6.96-3.12,6.96-6.96S12.79,2,8.96,2z"/>
</g>
</svg>
