<svg xmlns="http://www.w3.org/2000/svg" width="15" height="20" viewBox="0 0 15 20">
    <path id="clipboard-list"
        d="M13.125,2.5H10a2.5,2.5,0,0,0-5,0H1.875A1.875,1.875,0,0,0,0,4.375v13.75A1.875,1.875,0,0,0,1.875,20h11.25A1.875,1.875,0,0,0,15,18.125V4.375A1.875,1.875,0,0,0,13.125,2.5ZM3.75,16.563a.938.938,0,1,1,.938-.937A.935.935,0,0,1,3.75,16.563Zm0-3.75a.938.938,0,1,1,.938-.937A.935.935,0,0,1,3.75,12.813Zm0-3.75a.938.938,0,1,1,.938-.937A.935.935,0,0,1,3.75,9.063Zm3.75-7.5a.938.938,0,1,1-.937.938A.935.935,0,0,1,7.5,1.563Zm5,14.375a.313.313,0,0,1-.312.313H6.563a.313.313,0,0,1-.312-.312v-.625A.313.313,0,0,1,6.563,15h5.625a.313.313,0,0,1,.313.313Zm0-3.75a.313.313,0,0,1-.312.313H6.563a.313.313,0,0,1-.312-.312v-.625a.313.313,0,0,1,.313-.312h5.625a.313.313,0,0,1,.313.313Zm0-3.75a.313.313,0,0,1-.312.313H6.563a.313.313,0,0,1-.312-.312V7.813A.313.313,0,0,1,6.563,7.5h5.625a.313.313,0,0,1,.313.313Z"
        fill="#000000" />
</svg>
