<?xml version="1.0" encoding="utf-8"?>
<!-- Generator: Adobe Illustrator 24.2.3, SVG Export Plug-In . SVG Version: 6.00 Build 0)  -->
<svg version="1.1" id="Layer_1" xmlns="http://www.w3.org/2000/svg" xmlns:xlink="http://www.w3.org/1999/xlink" x="0px" y="0px"
	 viewBox="0 0 319.23 293" style="enable-background:new 0 0 319.23 293;" xml:space="preserve">
<g>
	<path d="M63.37,147.76C58.82,110.27,37.84,90.11,0,86.03c37.81-4.14,58.84-24.16,63.39-62.26c4.75,37.72,25.33,58.11,62.84,61.81
		C88.73,92.57,69.57,109.14,63.37,147.76z"/>
	<path d="M209.79,293c-7.92-76.26-44.45-117.27-110.33-125.58c65.83-8.42,102.44-49.16,110.36-126.66
		c8.26,76.73,44.11,118.23,109.41,125.74c-27.34,8.96-54.78,14.34-75.51,38.23C222.96,228.67,216.14,259.46,209.79,293z"/>
	<path d="M146.03,57.45c-3.02-16.54-12.5-25.44-28.93-28.21c16.09-3.5,26.22-12.15,28.97-29.25c3.44,16.17,12.37,26.2,29.29,28.97
		C158.75,31.95,149.71,41.62,146.03,57.45z"/>
</g>
</svg>
