<svg xmlns="http://www.w3.org/2000/svg" aria-hidden="true" role="img" width="1em" height="1em" preserveAspectRatio="xMidYMid meet" viewBox="0 0 256 256"><path fill="#000000" d="M228 128a12 12 0 0 1-12 12h-80a12 12 0 0 1 0-24h80a12 12 0 0 1 12 12Zm-92-52h80a12 12 0 0 0 0-24h-80a12 12 0 0 0 0 24Zm80 104h-80a12 12 0 0 0 0 24h80a12 12 0 0 0 0-24ZM83.9 39.2L57.3 63.7l-9.2-8.5a12 12 0 1 0-16.2 17.6l17.3 16a12 12 0 0 0 16.3 0l34.6-32a12 12 0 0 0-16.2-17.6Zm0 64l-26.6 24.5l-9.2-8.5a12 12 0 0 0-16.2 17.6l17.3 16a12 12 0 0 0 16.3 0l34.6-32a12 12 0 1 0-16.2-17.6Zm0 64l-26.6 24.5l-9.2-8.5a12 12 0 0 0-16.2 17.6l17.3 16a12 12 0 0 0 16.3 0l34.6-32a12 12 0 1 0-16.2-17.6Z"/></svg>