<svg xmlns="http://www.w3.org/2000/svg" aria-hidden="true" role="img" width="1em" height="1em" preserveAspectRatio="xMidYMid meet" viewBox="0 0 256 256"><path fill="#000000" d="M224 128a8 8 0 0 1-8 8h-88a8 8 0 0 1 0-16h88a8 8 0 0 1 8 8Zm-96-56h88a8 8 0 0 0 0-16h-88a8 8 0 0 0 0 16Zm88 112h-88a8 8 0 0 0 0 16h88a8 8 0 0 0 0-16ZM86.6 42.1l-29.3 27l-11.9-11a8 8 0 0 0-10.8 11.8l17.3 16a8 8 0 0 0 5.4 2.1a8.2 8.2 0 0 0 5.5-2.1l34.6-32a8 8 0 1 0-10.8-11.8Zm0 64l-29.3 27l-11.9-11a8 8 0 1 0-10.8 11.8l17.3 16a8 8 0 0 0 5.4 2.1a8.2 8.2 0 0 0 5.5-2.1l34.6-32a8 8 0 1 0-10.8-11.8Zm0 64l-29.3 27l-11.9-11a8 8 0 1 0-10.8 11.8l17.3 16a8 8 0 0 0 5.4 2.1a8.2 8.2 0 0 0 5.5-2.1l34.6-32a8 8 0 0 0-10.8-11.8Z"/></svg>